<svg xmlns="http://www.w3.org/2000/svg" viewBox="0 0 100 100"><path fill="#6750a4" d="M0 0h100v100H0z"/><path fill="#fff" d="M61.668 48.712c-.367.434-.676.809-.926 1.125s-.492.592-.724.824a82.319 82.319 0 0 0-2.675 2.801 20.208 20.208 0 0 1-2.726 2.5c-2.3 1.734-4.5 2.458-6.6 2.175s-4.15-1.508-6.15-3.675a29.193 29.193 0 0 1-1.95-2.275 55.945 55.945 0 0 0-1.95-2.375c-.1.767-.15 1.517-.15 2.25 0 2.6.026 5.2.076 7.8.05 2.6.041 5.217-.025 7.85 0 1.767-.259 3.042-.775 3.824-.518.785-1.342 1.342-2.475 1.675-1.068.267-1.984.25-2.75-.05a4.52 4.52 0 0 1-1.925-1.424 6.845 6.845 0 0 1-1.175-2.276 11.78 11.78 0 0 1-.5-2.499 141.95 141.95 0 0 1-.325-7.725c-.05-2.85-.018-5.808.1-8.875.116-3.067.333-6.15.65-9.25.316-3.1.775-6.05 1.375-8.85.433-1.9 1.166-3.25 2.2-4.05 1.032-.8 2.266-1.117 3.7-.95a4.734 4.734 0 0 1 2.25 1.075c.633.55 1.2 1.258 1.7 2.125 1.032 2 1.941 3.967 2.725 5.9.782 1.933 1.608 3.85 2.475 5.75.7 1.534 1.325 2.725 1.875 3.575.55.85 1.091 1.384 1.625 1.6.533.217 1.082.133 1.65-.25.566-.383 1.2-1.058 1.9-2.025a50.322 50.322 0 0 0 2.625-3.825 167.22 167.22 0 0 0 2.375-3.95c.766-1.317 1.55-2.625 2.35-3.925a94.18 94.18 0 0 1 2.5-3.85c.566-.9 1.258-1.617 2.075-2.15a4.326 4.326 0 0 1 2.725-.7c2.3.2 3.85 1.583 4.65 4.15.232.767.4 1.592.5 2.475.1.883.133 1.725.1 2.524a441.52 441.52 0 0 1-.6 13.451c-.2 3-.417 5.967-.65 8.9a53.555 53.555 0 0 0 .05 8.95c0 1.667-.4 2.983-1.2 3.95-.8.967-1.725 1.542-2.775 1.725s-2.092-.05-3.125-.7c-1.033-.65-1.783-1.775-2.25-3.376a19.451 19.451 0 0 1-.375-2.274 21.784 21.784 0 0 1-.125-2.325c.066-2.2.166-4.392.3-6.575a436.4 436.4 0 0 0 .35-6.576c.032-.3.041-.616.025-.949s-.025-.75-.025-1.25z"/></svg>