<?xml version="1.0" standalone="no"?>
<!DOCTYPE svg PUBLIC "-//W3C//DTD SVG 20010904//EN"
 "http://www.w3.org/TR/2001/REC-SVG-20010904/DTD/svg10.dtd">
<svg version="1.0" xmlns="http://www.w3.org/2000/svg"
 width="700.000000pt" height="700.000000pt" viewBox="0 0 700.000000 700.000000"
 preserveAspectRatio="xMidYMid meet">
<metadata>
Created by potrace 1.14, written by Peter Selinger 2001-2017
</metadata>
<g transform="translate(0.000000,700.000000) scale(0.100000,-0.100000)"
fill="#000000" stroke="none">
<path d="M5825 6985 c-157 -35 -318 -143 -440 -294 -48 -61 -279 -402 -371
-549 -21 -35 -46 -74 -54 -87 -8 -12 -27 -43 -41 -67 -14 -23 -79 -131 -144
-238 -65 -107 -129 -215 -143 -240 -121 -217 -479 -798 -590 -960 -347 -503
-503 -660 -656 -660 -100 0 -213 78 -307 214 -121 173 -307 551 -519 1051 -23
55 -48 114 -56 130 -7 17 -34 82 -60 145 -61 153 -148 358 -190 448 -19 41
-34 75 -34 77 0 2 -50 106 -111 232 -146 300 -204 389 -334 516 -147 143 -303
206 -500 202 -197 -4 -381 -83 -507 -220 -81 -87 -164 -241 -212 -395 -24 -74
-105 -457 -121 -570 -4 -24 -8 -47 -10 -50 -2 -3 -6 -29 -10 -59 -4 -30 -8
-61 -10 -70 -1 -9 -6 -36 -9 -61 -3 -25 -8 -56 -11 -70 -3 -14 -8 -49 -11 -79
-3 -30 -8 -64 -10 -75 -2 -12 -9 -59 -14 -106 -6 -47 -12 -101 -15 -120 -2
-19 -7 -57 -10 -85 -3 -27 -7 -66 -10 -85 -2 -19 -7 -71 -11 -115 -3 -44 -8
-93 -9 -110 -2 -16 -6 -64 -9 -105 -4 -41 -8 -91 -11 -110 -2 -19 -7 -75 -10
-125 -3 -49 -8 -112 -10 -140 -6 -75 -21 -318 -30 -490 -5 -109 -15 -374 -21
-585 -5 -191 -5 -954 1 -1145 5 -212 14 -461 20 -560 14 -253 16 -299 20 -338
2 -23 6 -73 10 -112 5 -58 22 -155 40 -235 71 -305 242 -543 460 -639 85 -38
162 -51 270 -46 187 7 359 78 476 195 36 37 74 82 83 101 20 37 55 132 62 164
2 11 6 31 9 45 19 90 27 171 31 335 5 187 4 1212 -1 1495 -12 673 -5 1154 17
1175 4 5 147 -160 221 -255 317 -403 520 -610 744 -760 98 -66 259 -150 287
-150 6 0 16 -4 22 -9 11 -11 152 -47 219 -57 70 -10 211 -11 270 -1 28 4 65
10 84 12 61 9 239 73 334 121 244 122 508 335 756 610 25 27 131 139 237 250
106 110 212 225 236 255 23 29 48 60 56 67 7 8 24 29 38 48 15 19 30 34 35 34
7 0 4 -415 -5 -510 -2 -25 -7 -115 -10 -200 -4 -85 -9 -175 -11 -200 -2 -25
-6 -101 -10 -170 -3 -69 -8 -152 -10 -185 -13 -222 -17 -282 -31 -565 -13
-264 -12 -667 2 -790 29 -258 63 -400 129 -541 28 -61 35 -73 88 -146 54 -76
116 -131 210 -186 314 -183 672 -93 886 223 122 181 155 374 127 750 -18 228
-11 1032 9 1139 1 9 6 63 10 121 4 58 8 121 10 140 1 19 6 82 10 140 4 58 9
112 10 120 2 9 6 74 10 145 4 72 9 137 10 145 2 8 6 67 10 130 4 63 9 129 10
145 2 26 12 181 20 310 2 22 6 101 10 175 4 74 8 160 10 190 2 30 6 116 10
190 3 74 8 167 10 207 2 39 7 140 11 225 3 84 7 185 9 223 2 39 6 162 10 275
4 113 9 239 11 280 12 247 5 443 -21 620 -20 130 -22 142 -51 249 -93 345
-283 564 -556 641 -92 26 -259 33 -343 15z"/>
</g>
</svg>
